# xmcd CD database file
#
# Track frame offsets:
#	150
#	13326
#	27510
#	40175
#	54700
#	71527
#	82698
#	98516
#	130028
#	143848
#	160805
#	172139
#	193384
#
# Disc length: 2698 seconds
#
# Revision: 0
# Processed by: cddbd v1.5.1PL2 Copyright (c) Steve Scherf et al.
# Submitted via: CDex 1.50
#
DISCID=af0a880d
DTITLE=Pasadena Roof Orchestra - Fifteen Years On
DYEAR=1984
DGENRE=Jazz
TTITLE0=I Can't Dance
TTITLE1="Yes Yes" (My Baby Said Yes"
TTITLE2=You Took Advantage Of Me
TTITLE3=Varsity Drag
TTITLE4=The Very Thought Of You
TTITLE5=Casa Loma Stomp
TTITLE6=Pasadena
TTITLE7=Hollywood Medley
TTITLE8=The Lambeth Walk
TTITLE9=Solitude
TTITLE10=I Heard
TTITLE11=20's Medley
TTITLE12=Here's To The Next Time
EXTD=YEAR: 1984
EXTT0=
EXTT1=
EXTT2=
EXTT3=
EXTT4=
EXTT5=
EXTT6=
EXTT7=
EXTT8=
EXTT9=
EXTT10=
EXTT11=
EXTT12=
PLAYORDER=
